<!-- icon666.com - MILLIONS OF FREE VECTOR ICONS --><svg version="1.1" id="Layer_1" xmlns="http://www.w3.org/2000/svg" xmlns:xlink="http://www.w3.org/1999/xlink" x="0px" y="0px" viewBox="0 0 512 512" style="enable-background:new 0 0 512 512;" xml:space="preserve"><g><path style="fill:#2BA5F7;" d="M446.567,281.36c24.144,16.506,39.981,44.266,39.981,75.738c0,31.46-15.837,59.22-39.981,75.738 v0.012c-14.727,10.073-32.546,15.969-51.737,15.969c-31.83,0-59.888-16.219-76.335-40.853 c-9.715-14.56-15.384-32.045-15.384-50.866c0-18.821,5.669-36.317,15.384-50.866C334.941,281.599,363,265.38,394.83,265.38 C414.021,265.38,431.839,271.275,446.567,281.36z M459.277,357.098c0-35.542-28.918-64.448-64.448-64.448 c-5.251,0-10.347,0.633-15.241,1.826c-16.852,4.094-31.126,14.835-39.886,29.276c-0.012,0-0.012,0-0.012,0 c-5.896,9.727-9.309,21.148-9.309,33.346c0,12.185,3.413,23.607,9.309,33.334c0,0,0,0,0.012,0 c8.76,14.453,23.034,25.194,39.886,29.288c4.893,1.193,9.989,1.826,15.241,1.826C430.359,421.546,459.277,392.628,459.277,357.098z "></path><path style="fill:#2BA5F7;" d="M217.814,408.071c16.458,24.574,44.469,40.745,76.263,40.745H394.83 c19.191,0,37.01-5.896,51.737-15.969v44.54c0,14.167-11.493,25.66-25.672,25.66h-255.63h-29.61c-14.167,0-25.66-11.493-25.66-25.66 V216.077c0-14.178,11.493-25.672,25.66-25.672h14.011h25.099h2.721h48.861h141.176h53.372c14.178,0,25.672,11.493,25.672,25.672 v65.283c-14.727-10.085-32.546-15.981-51.737-15.981H294.077c-31.794,0-59.805,16.172-76.263,40.745 c-9.763,14.572-15.455,32.116-15.455,50.973C202.358,375.955,208.051,393.487,217.814,408.071z M210.486,253.6v-38.657h-59.017 V253.6H210.486z"></path></g><path style="fill:#2197D8;" d="M394.83,292.65c35.53,0,64.448,28.906,64.448,64.448c0,35.53-28.918,64.448-64.448,64.448 c-5.251,0-10.347-0.633-15.241-1.826v-0.012c28.202-6.862,49.207-32.331,49.207-62.61c0-30.29-21.005-55.759-49.207-62.622 C384.482,293.283,389.578,292.65,394.83,292.65z"></path><path style="fill:#9CD1EF;" d="M379.589,294.476c28.202,6.862,49.207,32.331,49.207,62.622c0,30.278-21.005,55.747-49.207,62.61 v0.012c-16.852-4.094-31.126-14.835-39.886-29.288c4.834,2.339,10.264,3.652,16.004,3.652c20.396,0,36.998-16.589,36.998-36.986 S376.104,320.1,355.708,320.1c-5.741,0-11.171,1.313-16.004,3.652C348.463,309.311,362.737,298.57,379.589,294.476z"></path><path style="fill:#2BA5F7;" d="M402.814,8.95v70.582h-35.291H261.638V8.95h57.012H402.814z M380.138,56.856v-25.23h-95.824v25.23 H380.138z"></path><g><path style="fill:#2197D8;" d="M294.077,265.38H394.83c-31.83,0-59.888,16.219-76.335,40.853l-0.155-0.107H217.814 C234.272,281.551,262.282,265.38,294.077,265.38z"></path><path style="fill:#2197D8;" d="M394.83,448.816H294.077c-31.794,0-59.805-16.172-76.263-40.745H318.34l0.155-0.107 C334.941,432.597,363,448.816,394.83,448.816z"></path></g><path style="fill:#FFFFFF;" d="M355.708,320.1c20.396,0,36.998,16.601,36.998,36.998c0,20.396-16.601,36.986-36.998,36.986 c-5.741,0-11.171-1.313-16.004-3.652c-0.012,0-0.012,0-0.012,0c-5.896-9.727-9.309-21.148-9.309-33.334 c0-12.197,3.413-23.619,9.309-33.346c0,0,0,0,0.012,0C344.537,321.413,349.967,320.1,355.708,320.1z"></path><rect x="284.31" y="31.626" style="fill:#F7B239;" width="95.824" height="25.23"></rect><polygon style="fill:#2BA5F7;" points="367.523,79.532 367.523,190.406 226.347,190.406 226.347,79.532 261.638,79.532 "></polygon><g><path style="fill:#2197D8;" d="M318.34,306.125l0.155,0.107c-9.715,14.548-15.384,32.045-15.384,50.866h-0.334H202.358 c0-18.857,5.693-36.401,15.455-50.973H318.34z"></path><path style="fill:#2197D8;" d="M318.495,407.964l-0.155,0.107H217.814c-9.763-14.584-15.455-32.116-15.455-50.973h100.419h0.334 C303.111,375.919,308.78,393.403,318.495,407.964z"></path><path style="fill:#2197D8;" d="M261.638,8.95v70.582h-35.291v110.874h-48.861V37.259c0-15.635,12.675-28.309,28.297-28.309 C205.783,8.95,261.638,8.95,261.638,8.95z"></path></g><rect x="151.465" y="214.945" style="fill:#F7B239;" width="59.017" height="38.657"></rect><g><polygon style="fill:#2197D8;" points="149.666,156.905 149.666,190.406 135.655,190.406 61.934,190.406 61.934,156.905 "></polygon><path style="fill:#2197D8;" d="M61.934,190.406h73.721c-14.167,0-25.66,11.493-25.66,25.672v261.311 c0,14.167,11.493,25.66,25.66,25.66H51.121c-14.178,0-25.672-11.493-25.672-25.66V216.077c0-14.178,11.493-25.672,25.672-25.672 H61.934z"></path></g><g><path style="fill:#333333;" d="M495.499,357.097c0-32.735-15.713-61.86-39.984-80.258v-60.767 c0-19.087-15.529-34.617-34.617-34.617h-44.426V88.488h26.341c4.945,0,8.951-4.008,8.951-8.951V8.951 c0-4.943-4.006-8.951-8.951-8.951H205.786c-20.541,0-37.253,16.711-37.253,37.253v144.203h-9.915V156.91 c0-4.943-4.006-8.951-8.951-8.951H61.934c-4.945,0-8.951,4.008-8.951,8.951v24.546h-1.865c-19.087,0-34.617,15.529-34.617,34.617 v261.312C16.501,496.472,32.03,512,51.118,512h369.78c19.087,0,34.617-15.528,34.617-34.615v-40.03 C479.787,418.957,495.499,389.83,495.499,357.097z M477.597,357.097c0,45.638-37.129,82.769-82.769,82.769 s-82.769-37.129-82.769-82.769s37.129-82.769,82.769-82.769S477.597,311.457,477.597,357.097z M313.991,297.175h-76.918 c14.855-14.139,34.927-22.847,57.006-22.847h43.54C328.556,280.612,320.562,288.332,313.991,297.175z M222.811,315.077h80.571 c-4.715,10.222-7.767,21.357-8.804,33.069h-82.776C213.096,336.176,216.956,324.971,222.811,315.077z M294.579,366.048 c1.037,11.712,4.089,22.845,8.804,33.068h-80.571c-5.855-9.894-9.715-21.099-11.009-33.068H294.579z M313.99,417.017 c6.572,8.844,14.565,16.563,23.63,22.848h-43.54c-22.079,0-42.151-8.708-57.007-22.848H313.99z M358.572,181.456H235.303V88.488 h123.269V181.456z M318.656,17.902h75.209v52.683h-123.27V17.902H318.656z M205.786,17.902h46.907v52.683h-26.341 c-4.945,0-8.951,4.008-8.951,8.951v101.918h-30.965V37.253C186.435,26.582,195.116,17.902,205.786,17.902z M70.886,165.861h69.83 v15.595h-69.83V165.861z M34.405,477.385V216.071c0-9.216,7.497-16.715,16.715-16.715h54.241 c-2.746,4.959-4.314,10.655-4.314,16.715v261.312c0,6.058,1.568,11.756,4.314,16.713H51.12 C41.903,494.098,34.405,486.6,34.405,477.385z M437.613,477.385c0,9.216-7.497,16.713-16.715,16.713H135.66 c-9.216,0-16.713-7.497-16.713-16.713V216.071c0-9.216,7.497-16.715,16.713-16.715h285.239c9.217,0,16.715,7.499,16.715,16.715 v49.925c-12.993-6.127-27.492-9.57-42.785-9.57H294.078c-55.51,0-100.671,45.16-100.671,100.671s45.161,100.671,100.671,100.671 h100.751c15.292,0,29.79-3.443,42.785-9.57V477.385z"></path><path style="fill:#333333;" d="M394.83,283.701c-40.469,0-73.395,32.926-73.395,73.396s32.926,73.396,73.395,73.396 c40.471,0,73.396-32.926,73.396-73.396S435.3,283.701,394.83,283.701z M379.597,410.447c-6.038-1.727-11.654-4.449-16.666-7.983 c21.916-3.475,38.725-22.492,38.725-45.365c0-22.876-16.806-41.896-38.719-45.375c5.013-3.534,10.631-6.256,16.67-7.982 c23.8,6.787,40.237,28.418,40.237,53.357C419.845,382.036,403.402,403.664,379.597,410.447z M345.971,330.807 c3.096-1.159,6.358-1.754,9.735-1.754c15.465,0,28.047,12.582,28.047,28.047c0,15.459-12.582,28.035-28.047,28.035 c-3.379,0-6.642-0.597-9.739-1.756c-4.227-7.828-6.632-16.779-6.632-26.281C339.337,347.59,341.742,338.636,345.971,330.807z M417.568,407.698c12.631-13.273,20.179-31.175,20.179-50.598c0-19.425-7.546-37.328-20.176-50.602 c19.288,8.703,32.752,28.103,32.752,50.6C450.324,379.595,436.857,398.995,417.568,407.698z"></path><path style="fill:#333333;" d="M219.439,253.604v-38.655c0-4.943-4.006-8.951-8.951-8.951h-59.02c-4.945,0-8.951,4.008-8.951,8.951 v38.655c0,4.943,4.006,8.951,8.951,8.951h59.02C215.431,262.555,219.439,258.547,219.439,253.604z M201.537,244.652H160.42v-20.753 h41.118V244.652z"></path><path style="fill:#333333;" d="M284.32,65.812h95.819c4.945,0,8.951-4.008,8.951-8.951V31.627c0-4.943-4.006-8.951-8.951-8.951 H284.32c-4.945,0-8.951,4.008-8.951,8.951v25.234C275.369,61.804,279.375,65.812,284.32,65.812z M293.271,40.578h77.917v7.332 h-77.917V40.578z"></path><circle style="fill:#333333;" cx="194.537" cy="440.845" r="8.951"></circle></g></svg>